<svg xmlns="http://www.w3.org/2000/svg" xmlns:xlink="http://www.w3.org/1999/xlink" width="200" zoomAndPan="magnify" viewBox="0 0 150 30.000001" height="40" preserveAspectRatio="xMidYMid meet" version="1.2"><defs><clipPath id="7de789581a"><path d="M 5.324219 1 L 45.96875 1 L 45.96875 28 L 5.324219 28 Z M 5.324219 1 "/></clipPath></defs><g id="2c57e3b416"><g clip-rule="nonzero" clip-path="url(#7de789581a)"><path style=" stroke:none;fill-rule:nonzero;fill:#326ffe;fill-opacity:1;" d="M 5.777344 15.738281 C 8.429688 19.0625 16.320312 27.929688 25.65625 27.929688 C 34.992188 27.929688 42.886719 19.0625 45.539062 15.738281 C 46.109375 15 46.109375 13.957031 45.539062 13.253906 C 42.886719 9.929688 34.992188 1.0625 25.65625 1.0625 C 16.320312 1.027344 8.429688 9.894531 5.777344 13.21875 C 5.171875 13.957031 5.171875 15 5.777344 15.738281 Z M 25.65625 6.402344 C 30.125 6.402344 33.71875 9.996094 33.71875 14.460938 C 33.71875 18.929688 30.125 22.523438 25.65625 22.523438 C 21.191406 22.523438 17.597656 18.929688 17.597656 14.460938 C 17.597656 9.996094 21.191406 6.402344 25.65625 6.402344 Z M 25.65625 6.402344 "/></g><path style=" stroke:none;fill-rule:nonzero;fill:#326ffe;fill-opacity:1;" d="M 29.6875 14.460938 C 29.6875 14.726562 29.660156 14.988281 29.609375 15.25 C 29.558594 15.507812 29.480469 15.761719 29.382812 16.003906 C 29.28125 16.25 29.15625 16.480469 29.007812 16.703125 C 28.863281 16.921875 28.695312 17.125 28.507812 17.3125 C 28.320312 17.5 28.117188 17.667969 27.898438 17.8125 C 27.675781 17.960938 27.445312 18.085938 27.199219 18.1875 C 26.957031 18.289062 26.703125 18.363281 26.445312 18.414062 C 26.183594 18.46875 25.921875 18.492188 25.65625 18.492188 C 25.394531 18.492188 25.132812 18.46875 24.871094 18.414062 C 24.613281 18.363281 24.359375 18.289062 24.117188 18.1875 C 23.871094 18.085938 23.640625 17.960938 23.417969 17.8125 C 23.199219 17.667969 22.996094 17.5 22.808594 17.3125 C 22.621094 17.125 22.453125 16.921875 22.308594 16.703125 C 22.160156 16.480469 22.035156 16.25 21.933594 16.003906 C 21.832031 15.761719 21.757812 15.507812 21.707031 15.25 C 21.652344 14.988281 21.628906 14.726562 21.628906 14.460938 C 21.628906 14.199219 21.652344 13.9375 21.707031 13.675781 C 21.757812 13.417969 21.832031 13.164062 21.933594 12.921875 C 22.035156 12.675781 22.160156 12.445312 22.308594 12.222656 C 22.453125 12.003906 22.621094 11.800781 22.808594 11.613281 C 22.996094 11.425781 23.199219 11.257812 23.417969 11.113281 C 23.640625 10.964844 23.871094 10.839844 24.117188 10.738281 C 24.359375 10.636719 24.613281 10.5625 24.871094 10.511719 C 25.132812 10.457031 25.394531 10.433594 25.65625 10.433594 C 25.921875 10.433594 26.183594 10.457031 26.445312 10.511719 C 26.703125 10.5625 26.957031 10.636719 27.199219 10.738281 C 27.445312 10.839844 27.675781 10.964844 27.898438 11.113281 C 28.117188 11.257812 28.320312 11.425781 28.507812 11.613281 C 28.695312 11.800781 28.863281 12.003906 29.007812 12.222656 C 29.15625 12.445312 29.28125 12.675781 29.382812 12.921875 C 29.480469 13.164062 29.558594 13.417969 29.609375 13.675781 C 29.660156 13.9375 29.6875 14.199219 29.6875 14.460938 Z M 29.6875 14.460938 "/><g style="fill:#333333;fill-opacity:1;"><g transform="translate(49.165452, 18.870062)"><path style="stroke:none" d="M 6.125 0.171875 C 5.070312 0.171875 4.117188 -0.0507812 3.265625 -0.5 C 2.421875 -0.957031 1.757812 -1.582031 1.28125 -2.375 C 0.800781 -3.175781 0.5625 -4.078125 0.5625 -5.078125 C 0.5625 -6.078125 0.800781 -6.972656 1.28125 -7.765625 C 1.757812 -8.566406 2.421875 -9.191406 3.265625 -9.640625 C 4.117188 -10.097656 5.070312 -10.328125 6.125 -10.328125 C 7.175781 -10.328125 8.125 -10.097656 8.96875 -9.640625 C 9.8125 -9.191406 10.472656 -8.566406 10.953125 -7.765625 C 11.441406 -6.972656 11.6875 -6.078125 11.6875 -5.078125 C 11.6875 -4.078125 11.441406 -3.175781 10.953125 -2.375 C 10.472656 -1.582031 9.8125 -0.957031 8.96875 -0.5 C 8.125 -0.0507812 7.175781 0.171875 6.125 0.171875 Z M 6.125 -1.828125 C 6.726562 -1.828125 7.269531 -1.960938 7.75 -2.234375 C 8.238281 -2.515625 8.617188 -2.898438 8.890625 -3.390625 C 9.160156 -3.890625 9.296875 -4.453125 9.296875 -5.078125 C 9.296875 -5.710938 9.160156 -6.273438 8.890625 -6.765625 C 8.617188 -7.253906 8.238281 -7.632812 7.75 -7.90625 C 7.269531 -8.1875 6.726562 -8.328125 6.125 -8.328125 C 5.519531 -8.328125 4.976562 -8.1875 4.5 -7.90625 C 4.019531 -7.632812 3.640625 -7.253906 3.359375 -6.765625 C 3.085938 -6.273438 2.953125 -5.710938 2.953125 -5.078125 C 2.953125 -4.453125 3.085938 -3.890625 3.359375 -3.390625 C 3.640625 -2.898438 4.019531 -2.515625 4.5 -2.234375 C 4.976562 -1.960938 5.519531 -1.828125 6.125 -1.828125 Z M 6.125 -1.828125 "/></g></g><g style="fill:#333333;fill-opacity:1;"><g transform="translate(61.409688, 18.870062)"><path style="stroke:none" d="M 1.046875 -10.765625 L 3.3125 -10.765625 L 3.3125 0 L 1.046875 0 Z M 1.046875 -10.765625 "/></g></g><g style="fill:#333333;fill-opacity:1;"><g transform="translate(65.776408, 18.870062)"><path style="stroke:none" d="M 5.796875 -7.921875 C 6.765625 -7.921875 7.546875 -7.628906 8.140625 -7.046875 C 8.734375 -6.472656 9.03125 -5.613281 9.03125 -4.46875 L 9.03125 0 L 6.765625 0 L 6.765625 -4.125 C 6.765625 -4.738281 6.628906 -5.195312 6.359375 -5.5 C 6.085938 -5.8125 5.695312 -5.96875 5.1875 -5.96875 C 4.613281 -5.96875 4.15625 -5.789062 3.8125 -5.4375 C 3.476562 -5.082031 3.3125 -4.554688 3.3125 -3.859375 L 3.3125 0 L 1.046875 0 L 1.046875 -10.765625 L 3.3125 -10.765625 L 3.3125 -7 C 3.613281 -7.300781 3.972656 -7.53125 4.390625 -7.6875 C 4.816406 -7.84375 5.285156 -7.921875 5.796875 -7.921875 Z M 5.796875 -7.921875 "/></g></g><g style="fill:#333333;fill-opacity:1;"><g transform="translate(75.888074, 18.870062)"><path style="stroke:none" d="M 4.765625 0.109375 C 3.941406 0.109375 3.203125 -0.0625 2.546875 -0.40625 C 1.890625 -0.75 1.378906 -1.222656 1.015625 -1.828125 C 0.648438 -2.441406 0.46875 -3.132812 0.46875 -3.90625 C 0.46875 -4.675781 0.648438 -5.363281 1.015625 -5.96875 C 1.378906 -6.582031 1.890625 -7.0625 2.546875 -7.40625 C 3.203125 -7.75 3.941406 -7.921875 4.765625 -7.921875 C 5.585938 -7.921875 6.320312 -7.75 6.96875 -7.40625 C 7.613281 -7.0625 8.117188 -6.582031 8.484375 -5.96875 C 8.859375 -5.363281 9.046875 -4.675781 9.046875 -3.90625 C 9.046875 -3.132812 8.859375 -2.441406 8.484375 -1.828125 C 8.117188 -1.222656 7.613281 -0.75 6.96875 -0.40625 C 6.320312 -0.0625 5.585938 0.109375 4.765625 0.109375 Z M 4.765625 -1.734375 C 5.335938 -1.734375 5.8125 -1.929688 6.1875 -2.328125 C 6.5625 -2.722656 6.75 -3.25 6.75 -3.90625 C 6.75 -4.5625 6.5625 -5.082031 6.1875 -5.46875 C 5.8125 -5.863281 5.335938 -6.0625 4.765625 -6.0625 C 4.179688 -6.0625 3.703125 -5.863281 3.328125 -5.46875 C 2.953125 -5.082031 2.765625 -4.5625 2.765625 -3.90625 C 2.765625 -3.25 2.953125 -2.722656 3.328125 -2.328125 C 3.703125 -1.929688 4.179688 -1.734375 4.765625 -1.734375 Z M 4.765625 -1.734375 "/></g></g><g style="fill:#333333;fill-opacity:1;"><g transform="translate(85.390409, 18.870062)"><path style="stroke:none" d=""/></g></g><g style="fill:#333333;fill-opacity:1;"><g transform="translate(89.496003, 18.870062)"><path style="stroke:none" d="M 5.71875 0.171875 C 4.269531 0.171875 3.140625 -0.226562 2.328125 -1.03125 C 1.523438 -1.832031 1.125 -2.976562 1.125 -4.46875 L 1.125 -10.15625 L 3.46875 -10.15625 L 3.46875 -4.5625 C 3.46875 -2.738281 4.222656 -1.828125 5.734375 -1.828125 C 6.472656 -1.828125 7.035156 -2.046875 7.421875 -2.484375 C 7.804688 -2.929688 8 -3.625 8 -4.5625 L 8 -10.15625 L 10.328125 -10.15625 L 10.328125 -4.46875 C 10.328125 -2.976562 9.921875 -1.832031 9.109375 -1.03125 C 8.296875 -0.226562 7.164062 0.171875 5.71875 0.171875 Z M 5.71875 0.171875 "/></g></g><g style="fill:#333333;fill-opacity:1;"><g transform="translate(100.927814, 18.870062)"><path style="stroke:none" d="M 3.203125 -6.78125 C 3.472656 -7.15625 3.835938 -7.4375 4.296875 -7.625 C 4.765625 -7.820312 5.296875 -7.921875 5.890625 -7.921875 L 5.890625 -5.828125 C 5.640625 -5.847656 5.472656 -5.859375 5.390625 -5.859375 C 4.734375 -5.859375 4.222656 -5.675781 3.859375 -5.3125 C 3.492188 -4.957031 3.3125 -4.414062 3.3125 -3.6875 L 3.3125 0 L 1.046875 0 L 1.046875 -7.8125 L 3.203125 -7.8125 Z M 3.203125 -6.78125 "/></g></g><g style="fill:#333333;fill-opacity:1;"><g transform="translate(107.122463, 18.870062)"><path style="stroke:none" d="M 5.65625 -7.921875 C 6.382812 -7.921875 7.046875 -7.753906 7.640625 -7.421875 C 8.234375 -7.085938 8.695312 -6.617188 9.03125 -6.015625 C 9.375 -5.410156 9.546875 -4.707031 9.546875 -3.90625 C 9.546875 -3.101562 9.375 -2.398438 9.03125 -1.796875 C 8.695312 -1.191406 8.234375 -0.722656 7.640625 -0.390625 C 7.046875 -0.0546875 6.382812 0.109375 5.65625 0.109375 C 4.582031 0.109375 3.765625 -0.226562 3.203125 -0.90625 L 3.203125 0 L 1.046875 0 L 1.046875 -10.765625 L 3.3125 -10.765625 L 3.3125 -6.984375 C 3.882812 -7.609375 4.664062 -7.921875 5.65625 -7.921875 Z M 5.265625 -1.734375 C 5.847656 -1.734375 6.328125 -1.929688 6.703125 -2.328125 C 7.078125 -2.722656 7.265625 -3.25 7.265625 -3.90625 C 7.265625 -4.5625 7.078125 -5.082031 6.703125 -5.46875 C 6.328125 -5.863281 5.847656 -6.0625 5.265625 -6.0625 C 4.679688 -6.0625 4.203125 -5.863281 3.828125 -5.46875 C 3.460938 -5.082031 3.28125 -4.5625 3.28125 -3.90625 C 3.28125 -3.25 3.460938 -2.722656 3.828125 -2.328125 C 4.203125 -1.929688 4.679688 -1.734375 5.265625 -1.734375 Z M 5.265625 -1.734375 "/></g></g><g style="fill:#333333;fill-opacity:1;"><g transform="translate(117.00197, 18.870062)"><path style="stroke:none" d="M 4.1875 -7.921875 C 5.40625 -7.921875 6.335938 -7.632812 6.984375 -7.0625 C 7.628906 -6.488281 7.953125 -5.617188 7.953125 -4.453125 L 7.953125 0 L 5.828125 0 L 5.828125 -0.96875 C 5.410156 -0.25 4.617188 0.109375 3.453125 0.109375 C 2.859375 0.109375 2.335938 0.0078125 1.890625 -0.1875 C 1.453125 -0.394531 1.113281 -0.675781 0.875 -1.03125 C 0.644531 -1.382812 0.53125 -1.789062 0.53125 -2.25 C 0.53125 -2.976562 0.800781 -3.550781 1.34375 -3.96875 C 1.894531 -4.382812 2.742188 -4.59375 3.890625 -4.59375 L 5.6875 -4.59375 C 5.6875 -5.082031 5.535156 -5.457031 5.234375 -5.71875 C 4.941406 -5.988281 4.492188 -6.125 3.890625 -6.125 C 3.472656 -6.125 3.0625 -6.054688 2.65625 -5.921875 C 2.257812 -5.796875 1.921875 -5.625 1.640625 -5.40625 L 0.828125 -6.984375 C 1.253906 -7.285156 1.765625 -7.515625 2.359375 -7.671875 C 2.953125 -7.835938 3.5625 -7.921875 4.1875 -7.921875 Z M 4.015625 -1.40625 C 4.398438 -1.40625 4.742188 -1.492188 5.046875 -1.671875 C 5.347656 -1.847656 5.5625 -2.113281 5.6875 -2.46875 L 5.6875 -3.265625 L 4.140625 -3.265625 C 3.210938 -3.265625 2.75 -2.957031 2.75 -2.34375 C 2.75 -2.0625 2.859375 -1.832031 3.078125 -1.65625 C 3.304688 -1.488281 3.617188 -1.40625 4.015625 -1.40625 Z M 4.015625 -1.40625 "/></g></g><g style="fill:#333333;fill-opacity:1;"><g transform="translate(125.95302, 18.870062)"><path style="stroke:none" d="M 5.796875 -7.921875 C 6.765625 -7.921875 7.546875 -7.628906 8.140625 -7.046875 C 8.734375 -6.472656 9.03125 -5.613281 9.03125 -4.46875 L 9.03125 0 L 6.765625 0 L 6.765625 -4.125 C 6.765625 -4.738281 6.628906 -5.195312 6.359375 -5.5 C 6.085938 -5.8125 5.695312 -5.96875 5.1875 -5.96875 C 4.613281 -5.96875 4.15625 -5.789062 3.8125 -5.4375 C 3.476562 -5.082031 3.3125 -4.554688 3.3125 -3.859375 L 3.3125 0 L 1.046875 0 L 1.046875 -7.8125 L 3.203125 -7.8125 L 3.203125 -6.890625 C 3.503906 -7.222656 3.878906 -7.476562 4.328125 -7.65625 C 4.773438 -7.832031 5.265625 -7.921875 5.796875 -7.921875 Z M 5.796875 -7.921875 "/></g></g><g style="fill:#333333;fill-opacity:1;"><g transform="translate(136.064686, 18.870062)"><path style="stroke:none" d="M 4.765625 0.109375 C 3.941406 0.109375 3.203125 -0.0625 2.546875 -0.40625 C 1.890625 -0.75 1.378906 -1.222656 1.015625 -1.828125 C 0.648438 -2.441406 0.46875 -3.132812 0.46875 -3.90625 C 0.46875 -4.675781 0.648438 -5.363281 1.015625 -5.96875 C 1.378906 -6.582031 1.890625 -7.0625 2.546875 -7.40625 C 3.203125 -7.75 3.941406 -7.921875 4.765625 -7.921875 C 5.585938 -7.921875 6.320312 -7.75 6.96875 -7.40625 C 7.613281 -7.0625 8.117188 -6.582031 8.484375 -5.96875 C 8.859375 -5.363281 9.046875 -4.675781 9.046875 -3.90625 C 9.046875 -3.132812 8.859375 -2.441406 8.484375 -1.828125 C 8.117188 -1.222656 7.613281 -0.75 6.96875 -0.40625 C 6.320312 -0.0625 5.585938 0.109375 4.765625 0.109375 Z M 4.765625 -1.734375 C 5.335938 -1.734375 5.8125 -1.929688 6.1875 -2.328125 C 6.5625 -2.722656 6.75 -3.25 6.75 -3.90625 C 6.75 -4.5625 6.5625 -5.082031 6.1875 -5.46875 C 5.8125 -5.863281 5.335938 -6.0625 4.765625 -6.0625 C 4.179688 -6.0625 3.703125 -5.863281 3.328125 -5.46875 C 2.953125 -5.082031 2.765625 -4.5625 2.765625 -3.90625 C 2.765625 -3.25 2.953125 -2.722656 3.328125 -2.328125 C 3.703125 -1.929688 4.179688 -1.734375 4.765625 -1.734375 Z M 4.765625 -1.734375 "/></g></g></g></svg>