<svg xmlns="http://www.w3.org/2000/svg" xmlns:xlink="http://www.w3.org/1999/xlink" width="110" zoomAndPan="magnify" viewBox="0 0 82.5 30.000001" height="40" preserveAspectRatio="xMidYMid meet" version="1.2"><defs><clipPath id="8b41964eb3"><path d="M 4.503906 0 L 45.875 0 L 45.875 29 L 4.503906 29 Z M 4.503906 0 "/></clipPath></defs><g id="c70edf8773"><g clip-rule="nonzero" clip-path="url(#8b41964eb3)"><path style=" stroke:none;fill-rule:nonzero;fill:#326ffe;fill-opacity:1;" d="M 4.964844 15.851562 C 7.664062 19.234375 15.699219 28.261719 25.199219 28.261719 C 34.703125 28.261719 42.738281 19.234375 45.4375 15.851562 C 46.019531 15.097656 46.019531 14.039062 45.4375 13.320312 C 42.738281 9.9375 34.703125 0.914062 25.199219 0.914062 C 15.699219 0.878906 7.664062 9.902344 4.964844 13.289062 C 4.347656 14.039062 4.347656 15.097656 4.964844 15.851562 Z M 25.199219 6.347656 C 29.746094 6.347656 33.40625 10.007812 33.40625 14.550781 C 33.40625 19.097656 29.746094 22.757812 25.199219 22.757812 C 20.65625 22.757812 16.996094 19.097656 16.996094 14.550781 C 16.996094 10.007812 20.65625 6.347656 25.199219 6.347656 Z M 25.199219 6.347656 "/></g><path style=" stroke:none;fill-rule:nonzero;fill:#326ffe;fill-opacity:1;" d="M 29.304688 14.550781 C 29.304688 14.820312 29.277344 15.089844 29.222656 15.351562 C 29.171875 15.617188 29.09375 15.875 28.992188 16.121094 C 28.886719 16.371094 28.761719 16.609375 28.613281 16.832031 C 28.460938 17.054688 28.292969 17.261719 28.101562 17.453125 C 27.910156 17.644531 27.703125 17.8125 27.480469 17.964844 C 27.257812 18.113281 27.019531 18.238281 26.769531 18.34375 C 26.523438 18.445312 26.265625 18.523438 26 18.574219 C 25.738281 18.628906 25.46875 18.65625 25.199219 18.65625 C 24.933594 18.65625 24.664062 18.628906 24.402344 18.574219 C 24.136719 18.523438 23.878906 18.445312 23.632812 18.34375 C 23.382812 18.238281 23.144531 18.113281 22.921875 17.964844 C 22.699219 17.8125 22.492188 17.644531 22.300781 17.453125 C 22.109375 17.261719 21.941406 17.054688 21.789062 16.832031 C 21.640625 16.609375 21.515625 16.371094 21.410156 16.121094 C 21.308594 15.875 21.230469 15.617188 21.179688 15.351562 C 21.125 15.089844 21.097656 14.820312 21.097656 14.550781 C 21.097656 14.285156 21.125 14.015625 21.179688 13.753906 C 21.230469 13.488281 21.308594 13.230469 21.410156 12.984375 C 21.515625 12.734375 21.640625 12.496094 21.789062 12.273438 C 21.941406 12.050781 22.109375 11.84375 22.300781 11.652344 C 22.492188 11.460938 22.699219 11.292969 22.921875 11.140625 C 23.144531 10.992188 23.382812 10.867188 23.632812 10.761719 C 23.878906 10.660156 24.136719 10.582031 24.402344 10.53125 C 24.664062 10.476562 24.933594 10.449219 25.199219 10.449219 C 25.46875 10.449219 25.738281 10.476562 26 10.53125 C 26.265625 10.582031 26.523438 10.660156 26.769531 10.761719 C 27.019531 10.867188 27.257812 10.992188 27.480469 11.140625 C 27.703125 11.292969 27.910156 11.460938 28.101562 11.652344 C 28.292969 11.84375 28.460938 12.050781 28.613281 12.273438 C 28.761719 12.496094 28.886719 12.734375 28.992188 12.984375 C 29.09375 13.230469 29.171875 13.488281 29.222656 13.753906 C 29.277344 14.015625 29.304688 14.285156 29.304688 14.550781 Z M 29.304688 14.550781 "/><g style="fill:#333333;fill-opacity:1;"><g transform="translate(47.529721, 20.015003)"><path style="stroke:none" d="M 7.734375 0.21875 C 6.398438 0.21875 5.195312 -0.0664062 4.125 -0.640625 C 3.0625 -1.210938 2.226562 -2.003906 1.625 -3.015625 C 1.019531 -4.023438 0.71875 -5.160156 0.71875 -6.421875 C 0.71875 -7.671875 1.019531 -8.800781 1.625 -9.8125 C 2.226562 -10.820312 3.0625 -11.613281 4.125 -12.1875 C 5.195312 -12.757812 6.398438 -13.046875 7.734375 -13.046875 C 9.066406 -13.046875 10.265625 -12.757812 11.328125 -12.1875 C 12.390625 -11.613281 13.222656 -10.820312 13.828125 -9.8125 C 14.441406 -8.800781 14.75 -7.671875 14.75 -6.421875 C 14.75 -5.160156 14.441406 -4.023438 13.828125 -3.015625 C 13.222656 -2.003906 12.390625 -1.210938 11.328125 -0.640625 C 10.265625 -0.0664062 9.066406 0.21875 7.734375 0.21875 Z M 7.734375 -2.3125 C 8.492188 -2.3125 9.175781 -2.484375 9.78125 -2.828125 C 10.394531 -3.179688 10.875 -3.664062 11.21875 -4.28125 C 11.570312 -4.90625 11.75 -5.617188 11.75 -6.421875 C 11.75 -7.210938 11.570312 -7.914062 11.21875 -8.53125 C 10.875 -9.15625 10.394531 -9.640625 9.78125 -9.984375 C 9.175781 -10.335938 8.492188 -10.515625 7.734375 -10.515625 C 6.972656 -10.515625 6.285156 -10.335938 5.671875 -9.984375 C 5.066406 -9.640625 4.585938 -9.15625 4.234375 -8.53125 C 3.890625 -7.914062 3.71875 -7.210938 3.71875 -6.421875 C 3.71875 -5.617188 3.890625 -4.90625 4.234375 -4.28125 C 4.585938 -3.664062 5.066406 -3.179688 5.671875 -2.828125 C 6.285156 -2.484375 6.972656 -2.3125 7.734375 -2.3125 Z M 7.734375 -2.3125 "/></g></g><g style="fill:#333333;fill-opacity:1;"><g transform="translate(62.993789, 20.015003)"><path style="stroke:none" d="M 7.21875 0.21875 C 5.382812 0.21875 3.957031 -0.285156 2.9375 -1.296875 C 1.914062 -2.316406 1.40625 -3.765625 1.40625 -5.640625 L 1.40625 -12.828125 L 4.375 -12.828125 L 4.375 -5.75 C 4.375 -3.457031 5.328125 -2.3125 7.234375 -2.3125 C 8.160156 -2.3125 8.867188 -2.585938 9.359375 -3.140625 C 9.847656 -3.703125 10.09375 -4.570312 10.09375 -5.75 L 10.09375 -12.828125 L 13.03125 -12.828125 L 13.03125 -5.640625 C 13.03125 -3.765625 12.519531 -2.316406 11.5 -1.296875 C 10.476562 -0.285156 9.050781 0.21875 7.21875 0.21875 Z M 7.21875 0.21875 "/></g></g></g></svg>